<?xml version="1.0" standalone="no"?>
<!DOCTYPE svg PUBLIC "-//W3C//DTD SVG 20010904//EN"
 "http://www.w3.org/TR/2001/REC-SVG-20010904/DTD/svg10.dtd">
<svg version="1.0" xmlns="http://www.w3.org/2000/svg"
 width="500.000000pt" height="500.000000pt" viewBox="0 0 500.000000 500.000000"
 preserveAspectRatio="xMidYMid meet">
<metadata>
Created by potrace 1.11, written by Peter Selinger 2001-2013
</metadata>
<g transform="translate(0.000000,500.000000) scale(0.100000,-0.100000)"
fill="#000000" stroke="none">
<path d="M320 2485 l0 -2185 2185 0 2185 0 0 2185 0 2185 -2185 0 -2185 0 0
-2185z m4170 0 l0 -1985 -1985 0 -1985 0 0 1985 0 1985 1985 0 1985 0 0 -1985z"/>
<path d="M1573 3502 c-42 -27 -46 -110 -7 -153 16 -18 32 -19 229 -19 162 0
214 -3 217 -12 7 -23 1 -1362 -6 -1421 -28 -226 -178 -343 -426 -333 -114 5
-169 21 -243 70 -86 57 -128 135 -141 260 -6 62 -22 78 -83 83 -42 4 -54 1
-77 -19 -31 -26 -36 -64 -22 -161 27 -193 196 -353 422 -400 70 -15 273 -16
343 -2 136 27 281 126 343 235 80 139 84 183 83 1078 l0 764 -24 19 c-22 18
-43 19 -310 19 -157 0 -291 -4 -298 -8z"/>
<path d="M2515 3493 c-57 -30 -57 -45 -9 -201 20 -64 47 -155 61 -202 14 -47
36 -119 50 -160 14 -41 29 -88 33 -105 5 -16 26 -88 48 -160 22 -71 67 -218
100 -325 33 -107 97 -314 142 -460 45 -146 93 -304 107 -351 14 -47 35 -99 48
-115 21 -27 28 -29 90 -29 59 0 69 3 89 25 14 17 59 149 128 375 59 193 157
512 218 710 61 198 113 367 115 375 2 8 25 83 50 165 51 164 92 300 108 357
14 48 0 80 -46 101 -46 22 -90 21 -111 -2 -9 -10 -109 -326 -221 -702 -113
-376 -216 -720 -229 -764 -22 -71 -78 -257 -93 -310 -5 -18 -7 -18 -15 5 -6
14 -45 144 -89 289 -44 146 -84 279 -89 295 -10 30 -127 421 -276 921 -53 177
-81 255 -96 268 -25 21 -73 21 -113 0z"/>
</g>
</svg>
