<svg class="logo" version="1.1" id="Layer_1" xmlns="http://www.w3.org/2000/svg"
     xmlns:xlink="http://www.w3.org/1999/xlink" x="0px" y="0px" viewBox="0 0 1557.9 419.1"
     style="enable-background:new 0 0 1557.9 419.1;" xml:space="preserve">
                        <g>
                        <g>
                            <circle class="st0" cx="409.2" cy="12.9" r="11.1"></circle>
                            <path class="st0" d="M409.2,416.2c-5.8,0-10.5-4.7-10.5-10.5V53.9c0-5.8,4.7-10.5,10.5-10.5s10.5,4.7,10.5,10.5v351.8
                                C419.7,411.5,415,416.2,409.2,416.2z"></path>
                            <path class="st0" d="M356.8,416.2c-5.8,0-10.5-4.7-10.5-10.5V12.9c0-5.8,4.7-10.5,10.5-10.5s10.5,4.7,10.5,10.5v392.9
                                C367.3,411.5,362.6,416.2,356.8,416.2z"></path>
                        </g>
                            <g>
                            <circle class="st0" cx="1192.3" cy="68.1" r="11.1"></circle>
                                <path class="st0" d="M944.4,163c-1.2,0-2.5-0.2-3.7-0.7c-5.4-2-8.2-8.1-6.1-13.5c1.7-4.6,3.7-9.3,5.8-13.7
                                c2.1-4.4,4.4-8.8,6.9-12.9c2.5-4.2,5.2-8.2,8-12.1c2.8-3.9,5.8-7.6,9-11.2c3.1-3.6,6.5-7,9.9-10.2c3.4-3.2,7.1-6.3,10.8-9.1
                                c3.7-2.8,7.6-5.5,11.6-7.9c4-2.4,8.1-4.7,12.3-6.7c4.2-2,8.6-3.8,13-5.4c4.4-1.6,9-2.9,13.5-3.9c4.6-1.1,9.3-1.9,14-2.4
                                c9.5-1.1,19.4-1.1,28.9,0c4.7,0.5,9.4,1.4,14,2.4c4.6,1.1,9.1,2.4,13.5,3.9c4.4,1.5,8.7,3.3,13,5.4c4.2,2,8.3,4.3,12.3,6.7
                                c4,2.4,7.8,5.1,11.6,7.9c3.7,2.8,7.3,5.9,10.8,9.1c3.4,3.2,6.8,6.6,9.9,10.2c3.8,4.3,3.4,11-0.9,14.8c-4.3,3.8-11,3.4-14.8-0.9
                                c-2.7-3.1-5.6-6-8.5-8.7c-2.9-2.7-6-5.4-9.2-7.8c-3.2-2.4-6.5-4.7-9.8-6.7c-3.4-2.1-6.9-4-10.4-5.7c-3.5-1.7-7.2-3.2-10.9-4.5
                                c-3.7-1.3-7.5-2.4-11.3-3.3c-3.8-0.9-7.8-1.6-11.7-2c-8-0.9-16.2-0.9-24.1,0c-3.9,0.5-7.9,1.1-11.7,2c-3.8,0.9-7.6,2-11.3,3.3
                                c-3.7,1.3-7.3,2.8-10.9,4.5c-3.5,1.7-7,3.6-10.4,5.7c-3.4,2.1-6.7,4.3-9.8,6.7c-3.2,2.4-6.2,5-9.2,7.8c-2.9,2.7-5.8,5.7-8.5,8.7
                                c-2.7,3.1-5.3,6.3-7.8,9.7c-2.4,3.4-4.8,6.9-6.9,10.5c-2.2,3.6-4.2,7.4-6,11.3c-1.9,3.9-3.6,7.9-5.1,12
                                C952.7,160.4,948.7,163,944.4,163z"></path>
                                <path class="st0" d="M1063.9,419.1c-3.3,0-6.6-0.1-9.9-0.3c-3.3-0.2-6.6-0.5-9.8-0.8c-3.2-0.4-6.5-0.8-9.7-1.3
                                c-3.2-0.5-6.4-1.2-9.5-1.9c-3.1-0.7-6.3-1.5-9.3-2.4c-3.1-0.9-6.1-1.8-9.2-2.8c-3-1-6-2.1-9-3.3c-2.9-1.2-5.9-2.4-8.8-3.8
                                c-2.9-1.3-5.7-2.8-8.5-4.2c-2.8-1.5-5.6-3-8.3-4.7c-2.7-1.6-5.4-3.3-8.1-5.1c-2.6-1.8-5.3-3.6-7.8-5.5c-2.5-1.9-5.1-3.9-7.5-5.9
                                c-2.4-2-4.9-4.1-7.2-6.2c-2.4-2.1-4.7-4.4-7-6.6c-2.3-2.3-4.5-4.6-6.7-6.9c-2.2-2.4-4.3-4.8-6.3-7.3c-2.1-2.5-4.1-5-6-7.6
                                c-1.9-2.6-3.8-5.2-5.7-7.9c-1.8-2.7-3.6-5.5-5.3-8.2c-1.7-2.8-3.4-5.6-5-8.5c-1.6-2.9-3.1-5.8-4.6-8.8c-1.5-3-2.9-6-4.2-9
                                c-1.3-3.1-2.6-6.2-3.8-9.3c-1.2-3.1-2.4-6.3-3.4-9.5c-1.1-3.2-2.1-6.5-3-9.7c-1.6-5.6,1.7-11.4,7.2-12.9
                                c5.6-1.6,11.4,1.7,12.9,7.2c0.8,2.9,1.7,5.9,2.7,8.8c1,2.9,2,5.8,3.1,8.6c1.1,2.8,2.2,5.6,3.5,8.4c1.2,2.7,2.5,5.5,3.8,8.1
                                c1.3,2.7,2.7,5.3,4.1,7.9c1.4,2.6,2.9,5.2,4.5,7.7c1.5,2.5,3.1,5,4.8,7.4c1.7,2.4,3.4,4.8,5.1,7.1c1.7,2.3,3.6,4.6,5.4,6.8
                                c1.8,2.2,3.7,4.4,5.7,6.5c1.9,2.1,3.9,4.2,6,6.2c2,2,4.1,4,6.2,5.9c2.1,1.9,4.3,3.8,6.5,5.6c2.2,1.8,4.5,3.6,6.7,5.2
                                s4.6,3.3,6.9,4.9c2.3,1.6,4.7,3.1,7.2,4.5c2.4,1.4,4.9,2.8,7.4,4.1c2.5,1.3,5,2.6,7.6,3.7c2.5,1.2,5.2,2.3,7.7,3.3
                                c2.6,1,5.3,2,7.9,2.9c2.7,0.9,5.4,1.8,8.1,2.5c2.7,0.8,5.5,1.5,8.2,2.1c2.8,0.6,5.6,1.2,8.4,1.6c2.8,0.5,5.7,0.9,8.5,1.2
                                c2.9,0.3,5.8,0.6,8.6,0.7c5.8,0.3,11.7,0.3,17.5,0c2.9-0.2,5.8-0.4,8.6-0.7c2.8-0.3,5.7-0.7,8.5-1.2c2.8-0.5,5.6-1,8.4-1.6
                                c2.8-0.6,5.5-1.3,8.2-2.1c2.7-0.8,5.4-1.6,8.1-2.5c2.6-0.9,5.3-1.9,7.9-2.9c2.6-1,5.2-2.2,7.7-3.3c2.5-1.2,5.1-2.4,7.6-3.7
                                c2.5-1.3,4.9-2.7,7.4-4.1c2.4-1.4,4.8-3,7.2-4.5c1.2-0.8,2.4-1.6,3.5-2.4c1.3-1,17.9-13.4,27.5-24.3c3.8-4.3,10.4-4.8,14.8-0.9
                                c4.3,3.8,4.8,10.4,0.9,14.8c-11.4,13-30,26.8-30.8,27.3c-0.1,0-0.1,0.1-0.2,0.1c-1.4,1-2.7,1.9-4.1,2.8c-2.6,1.7-5.3,3.5-8.1,5.1
                                c-2.7,1.6-5.5,3.2-8.3,4.7c-2.8,1.5-5.7,2.9-8.5,4.2c-2.9,1.3-5.8,2.6-8.8,3.8c-2.9,1.2-6,2.3-9,3.3c-3,1-6.1,2-9.2,2.8
                                c-3.1,0.9-6.2,1.7-9.3,2.4c-3.1,0.7-6.3,1.3-9.5,1.9c-3.2,0.5-6.4,1-9.7,1.3c-3.2,0.4-6.5,0.6-9.8,0.8
                                C1070.5,419,1067.2,419.1,1063.9,419.1z"></path>
                                <path class="st0" d="M1063.9,366.6c-9.6,0-19.2-1.1-28.5-3.2c-9.1-2.1-18-5.2-26.5-9.3c-8.3-4-16.4-8.9-23.9-14.6
                                c-7.4-5.7-14.4-12.2-20.7-19.3c-6.3-7.1-12-15-17-23.3c-5-8.4-9.3-17.3-12.8-26.6c-3.5-9.4-6.2-19.3-8-29.3
                                c-1.2-6.9-2.1-13.9-2.5-20.9h-41.8c-5.8,0-10.5-4.7-10.5-10.5c0-7.1,0.3-14.3,1-21.3c0.6-6.9,1.6-13.9,2.9-20.7
                                c1.3-6.7,2.8-13.5,4.7-20c1.8-6.5,4-12.9,6.4-19.2c2.4-6.2,5.1-12.4,8-18.3c2.9-5.9,6.1-11.7,9.6-17.3c3.4-5.5,7.1-11,11-16.1
                                c3.9-5.2,8-10.2,12.4-14.9c4.3-4.7,8.9-9.3,13.6-13.6c4.7-4.3,9.7-8.3,14.8-12.1c5.1-3.8,10.4-7.3,15.8-10.5
                                c5.5-3.2,11.1-6.2,16.8-8.9c5.8-2.7,11.7-5.1,17.7-7.1c6.1-2.1,12.3-3.8,18.5-5.2c6.3-1.4,12.7-2.5,19.2-3.2
                                c13-1.4,26.4-1.4,39.5,0c6.4,0.7,12.9,1.8,19.2,3.2c6.2,1.4,12.4,3.1,18.5,5.2c6,2,11.9,4.4,17.7,7.1c5.7,2.6,11.4,5.6,16.8,8.9
                                c4.5,2.7,8.9,5.6,13.2,8.6c4.7,3.4,5.8,9.9,2.4,14.6c-3.4,4.7-9.9,5.8-14.6,2.4c-3.8-2.7-7.8-5.3-11.7-7.7
                                c-4.8-2.9-9.9-5.5-14.9-7.9c-5.1-2.4-10.4-4.5-15.7-6.3c-5.3-1.8-10.8-3.4-16.3-4.6c-5.6-1.2-11.2-2.2-16.9-2.8
                                c-11.5-1.3-23.3-1.3-34.8,0c-5.7,0.6-11.3,1.6-16.9,2.8c-5.5,1.2-11,2.8-16.3,4.6c-5.3,1.8-10.6,3.9-15.7,6.3
                                c-5.1,2.3-10.1,5-14.9,7.9c-4.8,2.9-9.6,6-14.1,9.4c-4.5,3.4-9,7-13.2,10.8c-4.2,3.8-8.3,7.9-12.2,12.1
                                c-3.9,4.2-7.6,8.7-11.1,13.4c-3.5,4.6-6.8,9.5-9.9,14.5c-3.1,5-6,10.3-8.6,15.6c-2.7,5.4-5.1,10.9-7.3,16.5
                                c-2.2,5.7-4.1,11.5-5.8,17.4c-1.7,5.9-3.1,12-4.3,18.1c-1.2,6.2-2,12.5-2.6,18.8c-0.3,2.9-0.5,5.9-0.6,8.9h41.2
                                c5.8,0,10.5,4.7,10.5,10.5c0,9.3,0.8,18.6,2.5,27.7c1.6,8.8,4,17.5,7.1,25.7c3,8.1,6.8,15.9,11.1,23.2c4.3,7.2,9.2,14,14.7,20.1
                                c5.4,6.1,11.4,11.7,17.7,16.5c6.4,4.9,13.1,9,20.2,12.4c7.1,3.4,14.6,6,22.2,7.8c15.5,3.6,32,3.6,47.5,0c7.6-1.8,15-4.4,22.2-7.8
                                c7-3.4,13.8-7.5,20.2-12.4c6.3-4.8,12.3-10.4,17.7-16.5c3.8-4.3,10.5-4.7,14.8-0.9c4.3,3.8,4.7,10.5,0.9,14.8
                                c-6.3,7.1-13.3,13.6-20.7,19.3c-7.5,5.7-15.5,10.7-23.9,14.6c-8.5,4.1-17.4,7.2-26.5,9.3C1083,365.5,1073.5,366.6,1063.9,366.6z"></path>
                        </g>
                            <g>
                            <circle class="st0" cx="1546.8" cy="406" r="11.1"></circle>
                                <path class="st0" d="M1275.8,416.4c-5.8,0-10.5-4.7-10.5-10.5V13.1c0-5.8,4.7-10.5,10.5-10.5s10.5,4.7,10.5,10.5V406
                                C1286.3,411.7,1281.6,416.4,1275.8,416.4z"></path>
                                <path class="st0" d="M1328.2,154.8c-5.8,0-10.5-4.7-10.5-10.5V13.1c0-5.8,4.7-10.5,10.5-10.5s10.5,4.7,10.5,10.5v131.2
                                C1338.6,150.1,1333.9,154.8,1328.2,154.8z"></path>
                                <path class="st0" d="M1328.2,416.4c-5.8,0-10.5-4.7-10.5-10.5V249.1c0-5.8,4.7-10.5,10.5-10.5H1442c5.8,0,10.5,4.7,10.5,10.5
                                s-4.7,10.5-10.5,10.5h-103.4V406C1338.6,411.7,1333.9,416.4,1328.2,416.4z"></path>
                                <path class="st0" d="M1546.8,377.1c-5.8,0-10.5-4.7-10.5-10.5V13.1c0-5.8,4.7-10.5,10.5-10.5s10.5,4.7,10.5,10.5v353.6
                                C1557.2,372.5,1552.5,377.1,1546.8,377.1z"></path>
                                <path class="st0" d="M1494.4,416.4c-5.8,0-10.5-4.7-10.5-10.5V13.1c0-5.8,4.7-10.5,10.5-10.5s10.5,4.7,10.5,10.5V406
                                C1504.9,411.7,1500.2,416.4,1494.4,416.4z"></path>
                                <path class="st0" d="M1442,207.2h-166.2c-5.8,0-10.5-4.7-10.5-10.5s4.7-10.5,10.5-10.5H1442c5.8,0,10.5,4.7,10.5,10.5
                                S1447.8,207.2,1442,207.2z"></path>
                        </g>
                            <g>
                            <circle class="st0" cx="502.6" cy="406" r="11.1"></circle>
                                <path class="st0" d="M738,416.3c-3.6,0-7-1.8-9-5.1L513.1,51v315.7c0,5.8-4.7,10.5-10.5,10.5s-10.5-4.7-10.5-10.5V13.1
                                c0-4.7,3.1-8.8,7.7-10.1c4.5-1.3,9.4,0.7,11.8,4.7l235.4,392.8c3,5,1.4,11.4-3.6,14.4C741.7,415.9,739.8,416.3,738,416.3z"></path>
                                <path class="st0" d="M555,416.4c-5.8,0-10.5-4.7-10.5-10.5V222.6c0-5.8,4.7-10.5,10.5-10.5s10.5,4.7,10.5,10.5V406
                                C565.4,411.7,560.8,416.4,555,416.4z"></path>
                                <path class="st0" d="M799.5,416.4c-5.8,0-10.5-4.7-10.5-10.5V13.1c0-5.8,4.7-10.5,10.5-10.5s10.5,4.7,10.5,10.5V406
                                C809.9,411.7,805.2,416.4,799.5,416.4z"></path>
                                <path class="st0" d="M747.1,329.5c-3.6,0-7.1-1.9-9-5.1l-183.4-306c-3-5-1.4-11.4,3.6-14.4c5-3,11.4-1.4,14.4,3.6l163.9,273.5
                                l0-268.1c0-5.8,4.7-10.5,10.5-10.5s10.5,4.7,10.5,10.5l0,306c0,4.7-3.1,8.8-7.7,10.1C749,329.4,748,329.5,747.1,329.5z"></path>
                        </g>
                            <g>
                            <circle class="st0" cx="11.1" cy="405.4" r="11.1"></circle>
                                <path class="st0" d="M63.5,415.9c-5.8,0-10.5-4.7-10.5-10.5V274.6c0-5.8,4.7-10.5,10.5-10.5h92.7c28.5,0,55.3-11.2,75.6-31.5
                                c20.3-20.3,31.5-47.2,31.5-75.6v-24.3c0-28.7-11.2-56-31.6-77c-20.4-21-47.3-32.6-75.5-32.6l-145.1,0c-5.8,0-10.5-4.7-10.5-10.5
                                c0-5.8,4.7-10.5,10.5-10.5l145.1,0c34,0,66.2,13.8,90.6,38.9c24.2,24.9,37.5,57.4,37.5,91.6V157c0,34.1-13.4,66.2-37.6,90.5
                                c-24.3,24.3-56.4,37.6-90.5,37.6H74v120.3C74,411.2,69.3,415.9,63.5,415.9z"></path>
                                <path class="st0" d="M11.1,371.3c-5.8,0-10.5-4.7-10.5-10.5V65.1c0-5.8,4.7-10.5,10.5-10.5h131.6c49.1,0,89,39.9,89,89
                                c0,49.1-39.9,89-89,89H63.5c-5.8,0-10.5-4.7-10.5-10.5V117.4c0-5.8,4.7-10.5,10.5-10.5S74,111.6,74,117.4v94.3h68.7
                                c37.5,0,68.1-30.5,68.1-68.1s-30.5-68.1-68.1-68.1H21.6v285.3C21.6,366.7,16.9,371.3,11.1,371.3z"></path>
                        </g>
                        </g>
                    </svg>